<?xml version="1.0" standalone="no"?>
<!DOCTYPE svg PUBLIC "-//W3C//DTD SVG 20010904//EN"
 "http://www.w3.org/TR/2001/REC-SVG-20010904/DTD/svg10.dtd">
<svg version="1.0" xmlns="http://www.w3.org/2000/svg"
 width="582.000000pt" height="582.000000pt" viewBox="0 0 582.000000 582.000000"
 preserveAspectRatio="xMidYMid meet">
<metadata>
Created by potrace 1.11, written by Peter Selinger 2001-2013
</metadata>
<g transform="translate(0.000000,582.000000) scale(0.100000,-0.100000)"
fill="#000000" stroke="none">
<path d="M1360 3435 l0 -75 110 0 110 0 0 75 0 75 -110 0 -110 0 0 -75z"/>
<path d="M3035 3438 c-3 -7 -6 -56 -7 -108 l-3 -95 -40 -5 -40 -5 0 -75 0 -74
35 -10 c19 -5 37 -11 40 -13 3 -3 7 -107 10 -231 5 -206 7 -231 27 -267 38
-72 87 -100 196 -111 71 -7 205 2 227 16 14 9 22 142 9 155 -4 3 -33 1 -66 -6
-52 -11 -63 -10 -97 6 -21 10 -42 28 -46 41 -5 12 -10 105 -11 205 -2 220 -7
212 123 207 47 -2 90 0 94 4 11 11 12 131 1 146 -6 8 -41 12 -108 12 -67 0
-100 4 -105 12 -5 7 -7 47 -5 90 4 116 2 118 -125 118 -75 0 -106 -4 -109 -12z"/>
<path d="M2550 3253 c-146 -18 -262 -88 -292 -175 -6 -16 -14 -28 -19 -28 -5
0 -9 -25 -9 -55 0 -30 4 -55 9 -55 5 0 12 -14 16 -31 16 -70 119 -136 254
-161 77 -14 129 -37 136 -59 15 -46 -18 -74 -102 -86 -55 -7 -160 20 -226 59
-81 47 -87 43 -87 -59 1 -101 4 -106 100 -138 43 -15 85 -19 190 -19 150 0
206 15 281 75 62 49 89 106 89 187 0 60 -4 74 -29 109 -46 63 -120 105 -210
119 -85 12 -144 37 -161 67 -14 27 -14 29 14 53 27 24 35 26 120 22 79 -3 99
-7 154 -36 35 -18 68 -30 73 -27 5 4 9 44 9 90 0 77 -2 86 -22 99 -43 28 -218
57 -288 49z"/>
<path d="M3895 3253 c-98 -11 -196 -54 -249 -109 -20 -21 -50 -67 -68 -103
-31 -64 -32 -70 -32 -196 0 -126 1 -132 33 -197 39 -82 117 -155 193 -183 75
-28 252 -28 323 -1 159 61 235 184 235 381 0 154 -52 272 -149 339 -63 44
-205 78 -286 69z m130 -206 c93 -93 84 -348 -14 -414 -70 -48 -165 -19 -201
60 -28 60 -28 236 -1 300 28 64 62 87 128 87 49 0 59 -4 88 -33z"/>
<path d="M5395 3254 c-11 -2 -45 -9 -75 -15 -184 -38 -300 -191 -300 -400 0
-186 98 -326 263 -374 81 -23 281 -23 378 0 105 25 109 30 109 136 0 48 -4 91
-10 94 -5 3 -36 -9 -67 -28 -32 -18 -79 -39 -105 -45 -100 -25 -214 -8 -266
41 -34 31 -64 94 -57 118 6 18 18 19 253 19 190 1 251 4 265 14 12 10 17 27
17 65 0 28 -4 51 -9 51 -5 0 -12 26 -16 57 -16 128 -104 224 -230 251 -67 15
-126 21 -150 16z m96 -177 c22 -15 39 -38 49 -66 22 -63 7 -71 -141 -71 -127
0 -147 8 -134 52 30 95 146 139 226 85z"/>
<path d="M415 3227 c-47 -14 -80 -31 -119 -64 -36 -30 -50 -26 -56 18 l-5 34
-90 3 c-103 3 -135 -2 -135 -23 0 -8 5 -15 10 -15 6 0 10 -115 10 -325 0 -210
-4 -325 -10 -325 -15 0 -12 -19 5 -36 11 -11 37 -14 112 -12 l98 3 5 267 5
266 29 23 c23 18 43 23 88 24 50 0 61 -4 85 -28 l28 -27 3 -243 c1 -133 5
-252 7 -264 5 -22 10 -23 105 -23 l100 0 0 264 0 264 35 26 c42 32 117 44 155
24 14 -7 35 -33 48 -58 21 -42 22 -55 22 -282 l0 -238 101 0 101 0 -4 308 c-3
295 -4 308 -25 342 -35 57 -74 86 -133 99 -84 20 -154 -4 -256 -86 -23 -18
-46 -33 -52 -33 -6 0 -18 13 -27 29 -21 41 -71 76 -127 90 -55 13 -60 13 -113
-2z"/>
<path d="M4475 3218 c-3 -7 -4 -180 -3 -383 l3 -370 104 -3 c67 -2 108 1 117
9 11 9 14 59 14 254 0 182 3 245 13 252 24 20 120 36 183 30 55 -4 66 -2 74
13 14 27 13 183 -2 198 -28 28 -124 5 -205 -50 -23 -15 -46 -28 -52 -28 -5 0
-11 19 -13 43 l-3 42 -113 3 c-84 2 -114 -1 -117 -10z"/>
<path d="M1368 3213 c-2 -4 -2 -171 0 -371 l2 -363 98 3 97 3 0 365 0 365 -97
3 c-53 1 -98 -1 -100 -5z"/>
<path d="M1830 3095 l0 -126 87 3 87 3 -1 120 0 120 -87 3 -86 3 0 -126z"/>
<path d="M1830 2595 l0 -115 106 0 107 0 -6 88 c-2 48 -10 99 -16 115 -10 27
-12 27 -101 27 l-90 0 0 -115z"/>
</g>
</svg>
